<?xml version="1.0" encoding="UTF-8" standalone="no"?>
<svg
   xmlns:dc="http://purl.org/dc/elements/1.1/"
   xmlns:cc="http://creativecommons.org/ns#"
   xmlns:rdf="http://www.w3.org/1999/02/22-rdf-syntax-ns#"
   xmlns:svg="http://www.w3.org/2000/svg"
   xmlns="http://www.w3.org/2000/svg"
   xmlns:sodipodi="http://sodipodi.sourceforge.net/DTD/sodipodi-0.dtd"
   xmlns:inkscape="http://www.inkscape.org/namespaces/inkscape"
   id="bold"
   enable-background="new 0 0 24 24"
   height="128"
   viewBox="0 0 6 6"
   width="128"
   version="1.1"
   sodipodi:docname="pkg.svg"
   inkscape:version="0.92.4 (5da689c313, 2019-01-14)">
  <metadata
     id="metadata15">
    <rdf:RDF>
      <cc:Work
         rdf:about="">
        <dc:format>image/svg+xml</dc:format>
        <dc:type
           rdf:resource="http://purl.org/dc/dcmitype/StillImage" />
        <dc:title></dc:title>
      </cc:Work>
    </rdf:RDF>
  </metadata>
  <defs
     id="defs13" />
  <sodipodi:namedview
     pagecolor="#ffffff"
     bordercolor="#666666"
     borderopacity="1"
     objecttolerance="10"
     gridtolerance="10"
     guidetolerance="10"
     inkscape:pageopacity="0"
     inkscape:pageshadow="2"
     inkscape:window-width="1920"
     inkscape:window-height="1027"
     id="namedview11"
     showgrid="false"
     inkscape:zoom="2.6074563"
     inkscape:cx="226.3522"
     inkscape:cy="91.800034"
     inkscape:window-x="-8"
     inkscape:window-y="-8"
     inkscape:window-maximized="1"
     inkscape:current-layer="bold" />
  <path
     d="m 0.8156304,0.12319499 c -0.36115456,0 -0.65383478,0.29497656 -0.65383478,0.65896466 V 2.8788653 H 2.8960138 V 0.12319499 Z M 1.8855418,1.7406537 H 1.6477839 v 0.2396234 c 0,0.099203 -0.079887,0.1797176 -0.1783187,0.1797176 -0.098432,0 -0.1783187,-0.080514 -0.1783187,-0.1797176 V 1.7406537 h -0.237758 c -0.0984319,0 -0.17831857,-0.080514 -0.17831857,-0.1797176 0,-0.099203 0.0798867,-0.1797178 0.17831857,-0.1797178 h 0.237758 V 1.1415949 c 0,-0.099203 0.079887,-0.17971764 0.1783187,-0.17971764 0.098432,0 0.1783187,0.0805138 0.1783187,0.17971764 v 0.2396234 h 0.2377579 c 0.098432,0 0.1783187,0.080514 0.1783187,0.1797178 0,0.099203 -0.079887,0.1797176 -0.1783187,0.1797176 z"
     id="path2"
     style="fill:#707fb7;fill-opacity:1;stroke-width:0.23868898"
     inkscape:connector-curvature="0" />
  <path
     d="m 0.16179562,3.1184887 v 2.0967057 c 0,0.363988 0.29268022,0.6589645 0.65383478,0.6589645 H 2.8960138 V 3.1184887 Z M 1.9521141,4.6688528 c 0.069663,0.07021 0.069663,0.1840308 0,0.2542404 -0.034713,0.034984 -0.080361,0.052478 -0.1260117,0.052478 -0.045649,0 -0.091299,-0.017493 -0.1260118,-0.052717 L 1.5289048,4.7503248 1.357719,4.9228536 c -0.034714,0.034984 -0.080363,0.052717 -0.1260119,0.052717 -0.04565,0 -0.091299,-0.017493 -0.1260119,-0.052717 -0.069664,-0.070209 -0.069664,-0.1840307 0,-0.2542405 L 1.276881,4.4960843 1.1056952,4.3235554 c -0.069664,-0.070209 -0.069664,-0.184031 0,-0.2542406 0.069664,-0.07021 0.1825983,-0.07021 0.2522614,0 L 1.5291424,4.2418437 1.7003283,4.0693148 c 0.069664,-0.07021 0.1825982,-0.07021 0.2522614,0 0.069663,0.070209 0.069663,0.1840309 0,0.2542406 L 1.7814038,4.4960843 Z"
     id="path4"
     style="fill:#707fb7;fill-opacity:1;stroke-width:0.23868898"
     inkscape:connector-curvature="0" />
  <path
     d="M 5.2141554,0.12319499 H 3.1337719 V 2.8788653 H 5.8679901 V 0.78215965 c 0,-0.3639881 -0.2926802,-0.65896466 -0.6538347,-0.65896466 z M 5.0952763,1.6807477 H 4.0253648 c -0.098432,0 -0.1783186,-0.080514 -0.1783186,-0.1797176 0,-0.099203 0.079887,-0.1797176 0.1783186,-0.1797176 h 1.0699115 c 0.098432,0 0.1783185,0.080514 0.1783185,0.1797176 0,0.099205 -0.079887,0.1797176 -0.1783185,0.1797176 z"
     id="path6"
     style="fill:#707fb7;fill-opacity:1;stroke-width:0.23868898"
     inkscape:connector-curvature="0" />
  <path
     d="m 3.1337719,3.1184887 v 2.7556702 h 2.0803835 c 0.3611545,0 0.6538347,-0.2949765 0.6538347,-0.6589645 V 3.1184887 Z m 1.9020648,1.916988 H 3.9659253 c -0.098432,0 -0.1783186,-0.080514 -0.1783186,-0.1797177 0,-0.099203 0.079887,-0.1797176 0.1783186,-0.1797176 h 1.0699114 c 0.098432,0 0.1783187,0.080514 0.1783187,0.1797176 0,0.099203 -0.079887,0.1797177 -0.1783187,0.1797177 z m 0,-0.7188705 H 3.9659253 c -0.098432,0 -0.1783186,-0.080514 -0.1783186,-0.1797176 0,-0.099203 0.079887,-0.1797176 0.1783186,-0.1797176 h 1.0699114 c 0.098432,0 0.1783187,0.080514 0.1783187,0.1797176 0,0.099203 -0.079887,0.1797176 -0.1783187,0.1797176 z"
     id="path8"
     style="fill:#707fb7;fill-opacity:1;stroke-width:0.23868898"
     inkscape:connector-curvature="0" />
</svg>
